# xmcd CD database file
#
# Track frame offsets:
#	150
#	19397
#	40674
#	56358
#	73559
#	90359
#	108817
#	121414
#	140296
#	156622
#	177264
#	192900
#	211568
#
# Disc length: 2983 seconds
#
# Revision: 0
# Processed by: cddbd v1.5.2PL0 Copyright (c) Steve Scherf et al.
# Submitted via: CDex 1.70beta2
#
DISCID=a70ba50d
DTITLE=Kimberly Kelly - Sweet Time Dreamin'
DYEAR=2010
DGENRE=Country
TTITLE0=Every Bad Habit
TTITLE1=Texas Weather
TTITLE2=Ophelia (Featuring Emily Gimble)
TTITLE3=Cry Baby
TTITLE4=Tell It To My Heart
TTITLE5=When I'll Need You
TTITLE6=I See The Want To In Your Eyes
TTITLE7=Middle Class Money
TTITLE8=My Biggest Weakness
TTITLE9=I Saw Your Face And Forgot (Featuring Aaron Wilson)
TTITLE10=Eat, Drink And Remarry
TTITLE11=Ode To Dierks
TTITLE12=Last Goodbye
EXTD=YEAR: 2010
EXTT0=
EXTT1=
EXTT2=
EXTT3=
EXTT4=
EXTT5=
EXTT6=
EXTT7=
EXTT8=
EXTT9=
EXTT10=
EXTT11=
EXTT12=
PLAYORDER=
